PathFileType	4	(X/Y/Z)	51_2_19_p0_0-701_filt_butterworth.trc
DataRate	CameraRate	NumFrames	NumMarkers	Units	OrigDataRate	OrigDataStartFrame	OrigNumFrames
60.0	60.0	7	27	m	60.0	613	701
Frame#	Time	RHip			RKnee			RAnkle			RBigToe			RSmallToe			RHeel			LHip			LKnee			LAnkle			LBigToe			LSmallToe			LHeel			Neck			Head			Nose			RShoulder			RElbow			RWrist			RThumb			RIndex			RPinky			LShoulder			LElbow			LWrist			LThumb			LIndex			LPinky			
		X1	Y1	Z1	X2	Y2	Z2	X3	Y3	Z3	X4	Y4	Z4	X5	Y5	Z5	X6	Y6	Z6	X7	Y7	Z7	X8	Y8	Z8	X9	Y9	Z9	X10	Y10	Z10	X11	Y11	Z11	X12	Y12	Z12	X13	Y13	Z13	X14	Y14	Z14	X15	Y15	Z15	X16	Y16	Z16	X17	Y17	Z17	X18	Y18	Z18	X19	Y19	Z19	X20	Y20	Z20	X21	Y21	Z21	X22	Y22	Z22	X23	Y23	Z23	X24	Y24	Z24	X25	Y25	Z25	X26	Y26	Z26	X27	Y27	Z27	
613	10.216666666666669	0.09011034618247239	0.534371309441039	0.5576504375296786	0.1040535987846581	0.6075484151114349	1.0472126697296902	0.10281679584022396	0.6617926108225556	1.4759994098268108	0.05644344213349118	0.5221799385895946	1.5257310706547058	0.11481778939345377	0.5188748659218315	1.5179707355268455	0.08511777525065345	0.6962736556651447	1.5253054586905355	-0.1183696589700938	0.5311437210429807	0.5638425591939195	-0.12601449724837985	0.5892982190568024	1.0516146282696361	-0.13771317739442535	0.6494784197213841	1.4963851583525678	-0.09532157691176511	0.5002282262933516	1.516395377663231	-0.16491516307539902	0.5185659582175209	1.5131125108195098	-0.13832335675900412	0.6840877936107526	1.554142870097169	0.0017737626885154527	0.46237676973548597	-0.008172198102709319	0.015161493696363831	0.4031559850930339	-0.2340671237112809	0.00975930397419699	0.3635582961318893	-0.1147271254017172	0.1614450998125355	0.4922629887951304	0.11309020610671341	0.28695627495660936	0.5086352397185763	0.36146083820573205	0.33103456015578403	0.3671982433609879	0.6099462076406179	0.285929196103777	0.37614340151328796	0.7306568376450929	0.3103882576289262	0.3793338453058142	0.7479802698354532	0.3468996415631779	0.3803558716244225	0.7532579139490879	-0.15403563204309445	0.4851932422346081	0.09510681258811936	-0.2594905228457395	0.5194083921754787	0.3545522846139271	-0.2963109738354047	0.4484445481911086	0.59817342957628	-0.24752641624137783	0.4079942636594185	0.6993795446292601	-0.28837269199424587	0.4054430986502006	0.719005882815424	-0.3351559236082953	0.4677623345804136	0.7374797577952839
614	10.233333333333333	0.0912675856122942	0.530720779868097	0.5616420853861424	0.10393059404852822	0.6072777737400291	1.0465619576294254	0.10285373654671456	0.6618504362383972	1.4760591924763247	0.05647279369226976	0.5221993281249554	1.5257821542412011	0.1149166703176993	0.5213449793319935	1.5179877887348185	0.08390075329806429	0.7006777072782602	1.5273451319978988	-0.11570966951264901	0.5261463568674317	0.566479707212604	-0.12597066416284203	0.589377339321518	1.0521745105399134	-0.13740828208151934	0.6494807675582197	1.4951469326786668	-0.0970034726167249	0.49032902065424033	1.5113484722577462	-0.1651347622648402	0.5183419609580884	1.512665381461844	-0.13827276363565869	0.6841458484300516	1.55503276295312	0.0016814443472642233	0.46257315338902005	-0.00812332364435786	0.01516013539894873	0.40316931261776523	-0.23406179789604484	0.009722866581593643	0.3631773565922236	-0.11591257459364766	0.16250006153014301	0.48848049705935476	0.11296673826552034	0.2917678236388332	0.5165131853171777	0.35732886226084043	0.3566551412224294	0.37257132469372606	0.6025699029603163	0.3148965735148498	0.3815853951549585	0.7297111054114943	0.342237476347828	0.3842283137996057	0.7450180117214592	0.3758626382834504	0.3831608747662709	0.746076415227194	-0.15413275217970027	0.48508800997965335	0.09520381843227714	-0.2595942587669026	0.5181751094614656	0.35514618602029246	-0.32408596433283776	0.4738707542145033	0.595781931051064	-0.28331038589606455	0.43242608487677786	0.7041077622345195	-0.3352516913758466	0.4364263103199631	0.7227233448469301	-0.3779534685618935	0.5018813758766839	0.7427082867865277
615	10.25	0.09265301521021248	0.5255355665533491	0.5635708299370062	0.10362970140195016	0.6071733298169159	1.045020834120094	0.10288096892128178	0.6618844824388803	1.476128736710255	0.05645420109739743	0.5218821977963517	1.5254182593720709	0.1151413543861017	0.5226396884901787	1.518071903033548	0.08220463496716074	0.7067976264214706	1.531334990131857	-0.11183953135230586	0.517431532211044	0.567561121785934	-0.12574314801481679	0.5895648604568827	1.0500918651232238	-0.13728664483493996	0.6494410449731332	1.4945261894614519	-0.10027402180317681	0.4810564175961111	1.5053402893233399	-0.16406182068851458	0.5181715807834109	1.5119895182681886	-0.13826011531121754	0.6844337277414989	1.555235030437717	0.0016971088216508668	0.46247956737404294	-0.008087488303481691	0.015158835611412068	0.403237697407435	-0.23406212114876426	0.009702302325617812	0.3629007271560594	-0.1162727011149181	0.16293108392966338	0.4869732519003163	0.11297400194053907	0.29435913374200334	0.5176046982269698	0.35266633421838434	0.3822770956430578	0.3778369192837139	0.5911186015071463	0.34530142627358884	0.38835236957211183	0.727613379929094	0.37519726699550066	0.3856672593017727	0.7401432381975599	0.404125301004711	0.3854480872277935	0.7356167069844464	-0.15421037253878275	0.48500178504249414	0.09536079332667892	-0.25918171663575545	0.5168697035334257	0.3551668229899912	-0.350453893028859	0.5038507409936664	0.5911129123142214	-0.3207364662346163	0.4621344688247943	0.7036789889532167	-0.3794960289718373	0.46154217019548044	0.719093075888996	-0.418228588912046	0.5257371493676116	0.7395259527385281
616	10.266666666666667	0.09368751564270693	0.5213555019500766	0.5633291606819487	0.10338772951816404	0.6071373104644298	1.0436169513878057	0.10289364565244295	0.6618848452705507	1.476183208516523	0.05626450707664567	0.5209592292741199	1.5241126812790315	0.11520533054975642	0.5227024933109843	1.5181162008021805	0.08079759698597701	0.7119628625147769	1.5356115996811077	-0.10861318385483801	0.5083972556673517	0.5676114654613259	-0.125604224071025	0.5896119551175183	1.0464901708999743	-0.13729339362879242	0.6494082976114427	1.494381484756269	-0.10342871831564979	0.4774130810477657	1.5012799530854237	-0.1622252408785359	0.5181882802090464	1.5110668074722304	-0.13827696180656535	0.6848029155845836	1.5540323948882386	0.0021786125721575183	0.4611021183284326	-0.008077035295417699	0.015163860506313513	0.40331808099295086	-0.2340602801248826	0.009693808554677563	0.36280631925221823	-0.11622621024921145	0.16297129134060476	0.4869505176542146	0.11303938256254911	0.29745111689086173	0.513562520680154	0.3484224195520101	0.40683425230247905	0.38436442749810207	0.5785894037846299	0.3783714689314385	0.3937790816738344	0.7224205588659516	0.40840984441159256	0.3884947283741581	0.7330993716079244	0.4325533324605795	0.39411598932506897	0.7256439283575286	-0.15424653694162016	0.4849687584912826	0.0953816201504242	-0.25976537983733594	0.5176034433177094	0.35129603281614824	-0.37481816690305925	0.5326760154866591	0.5822393626421409	-0.36153568357490395	0.491827355787716	0.6962738066087546	-0.4210060177534314	0.4863858499300844	0.7097685948736905	-0.4528247267797137	0.5430083893334814	0.7259346038402434
617	10.283333333333331	0.0941165952102013	0.5195743811467309	0.5617772532130271	0.10327663965155995	0.6070586259918981	1.0429032255581225	0.10289445428434461	0.6618630899395518	1.4762068441709093	0.05586994173927202	0.5196953412244161	1.5220532955246944	0.11514062415604703	0.521580516877505	1.5180463898625671	0.08025817039144448	0.7142922502924017	1.5380126161087229	-0.10715405199389813	0.5027578640290995	0.5675002018684542	-0.1256619791028877	0.5893302406465663	1.0432511527801982	-0.13735343970241473	0.6494128893936302	1.4942692382467457	-0.10457227741753254	0.48096257076028637	1.5009964385912902	-0.1606381703006447	0.518473214660833	1.5102327480352953	-0.13833018381981577	0.68513190646622	1.5519160370873384	0.0033897205601241777	0.4576754156239903	-0.008070714365645089	0.015181210979950106	0.40336491195513274	-0.23407223395058238	0.00969055201294421	0.3628296568369768	-0.11612294472717277	0.16290861669523066	0.4872459652965909	0.11304803043013231	0.3029121169868204	0.5059293405408987	0.34478963052609557	0.4303021505802024	0.3966170316351511	0.5698992746180525	0.4109767725260468	0.39840211328353753	0.7145525142305671	0.4388454246957241	0.3962087714037523	0.7241038949526619	0.46236587904046583	0.40947648690173305	0.7164008653887809	-0.15424239422867214	0.4849718251253283	0.0949982413485439	-0.26334808241919244	0.5236912974500718	0.343462829328379	-0.3973634504448985	0.5557589056223762	0.5691549572576948	-0.40361054126035023	0.5160193654309883	0.6819850010642484	-0.4596881746107989	0.5151664015883707	0.6954109652317241	-0.48031173061345567	0.5586707732388081	0.7036130941755533
618	10.3	0.09420177816021029	0.519492065998881	0.5598830324412961	0.10324932903582561	0.6069191617314904	1.0426897713507088	0.10289175310264809	0.661843820315515	1.476204538695259	0.05543601497448029	0.5189502684876869	1.5201837981876853	0.11520546515607208	0.5193605577166654	1.5179309211569574	0.08082739075877131	0.7132641068196939	1.5376529093263198	-0.10700702529132891	0.5010334400579378	0.5674907280925894	-0.12582076547883655	0.5889182783320561	1.0417980510180955	-0.1374442040586104	0.649441721625293	1.4937233983107638	-0.10338388291095214	0.48855273874813054	1.5039310691215795	-0.1599334879623098	0.5189183483268296	1.5100244946159251	-0.13847501349351365	0.6855354143367107	1.5503398050651873	0.0049864854547517585	0.45315264038160086	-0.008033705436792287	0.015205310209304787	0.40337298073323946	-0.23412726818147445	0.009671287073870008	0.3628621026349785	-0.11608078000560536	0.1628490080203265	0.48725128074906243	0.11278051764281963	0.31034811796597295	0.4955731906327857	0.3410070662116551	0.4508412296013432	0.4140847704392278	0.5660796663737404	0.43980162337805256	0.4055810229104851	0.7065191053424489	0.4645718698356876	0.4045981929877756	0.7130471947106712	0.4929670235831155	0.42215220377627827	0.7060636369585611	-0.15419323053503395	0.4849905386187225	0.09408719873706907	-0.270887683314625	0.5361580074774895	0.3345327962642769	-0.41693297736827234	0.570513827545098	0.5536635556736318	-0.44198964540414853	0.5348817418444399	0.665262025803418	-0.4940986556878691	0.544008650049447	0.6778588087133242	-0.5013537955232865	0.5734850739432319	0.6778945024594107
619	10.316666666666666	0.0942168324826794	0.5199123960497642	0.5585931841200109	0.10324849337020654	0.6067725916584541	1.0427663697515146	0.10289218396575836	0.6618285191455369	1.476190565865233	0.05529606922993142	0.5190335770351376	1.5192820788928838	0.11557199121406622	0.516866300870549	1.517902165098106	0.08244071640957987	0.7088247679330085	1.5351162495930777	-0.1071211102808555	0.5013101731176332	0.5673581180642309	-0.12587320786045067	0.5888249557807017	1.0423043505068803	-0.13754756924007738	0.6494756693421251	1.4927753996954871	-0.10119361874994971	0.49478078542499	1.5077203931197287	-0.15998799348204107	0.5192502939469608	1.5104832385984175	-0.1387217596753971	0.686104608633878	1.5499603729170344	0.006194639349282721	0.44973444741422597	-0.007964740652467574	0.015213582936974954	0.40341381916911284	-0.23422529314423285	0.009642358779898844	0.36281211876596836	-0.11609367472193977	0.16277974489315084	0.48686754378013414	0.11202730410588443	0.3180506117751548	0.4834225856337079	0.3368504173567214	0.4665835535435319	0.42982996338532864	0.5640863377135981	0.46347189092263125	0.41186297997603816	0.6982101792689114	0.48634415237264844	0.4082292535472854	0.6994697644265767	0.52221046721428	0.4270038675945106	0.6941105089937324	-0.15412070315729712	0.4849966671733044	0.09293468973858694	-0.2810110679306619	0.5501610536266454	0.3268451164568111	-0.4324971751797907	0.5790685218159524	0.5380542186184013	-0.4741336852621859	0.5543249349916778	0.651780846929206	-0.5217914490663045	0.5670751007895285	0.6611805695703922	-0.5168709439909985	0.5847236337090932	0.6534778671043515
